<svg width="1200" height="820" viewBox="0 0 1200 820" fill="none" xmlns="http://www.w3.org/2000/svg">
  <rect width="1200" height="820" rx="40" fill="#F7F4FF"/>
  <circle cx="920" cy="180" r="150" fill="#E7DFFF"/>
  <circle cx="260" cy="680" r="180" fill="#ECF9F7"/>
  <rect x="120" y="170" width="430" height="500" rx="36" fill="white" stroke="#E5E7EB"/>
  <rect x="165" y="245" width="340" height="24" rx="12" fill="#E7DFFF"/>
  <rect x="165" y="290" width="270" height="18" rx="9" fill="#F4F5F7"/>
  <rect x="165" y="334" width="300" height="18" rx="9" fill="#F4F5F7"/>
  <rect x="165" y="378" width="220" height="18" rx="9" fill="#F4F5F7"/>
  <rect x="165" y="442" width="200" height="56" rx="18" fill="#7B4CF2"/>
  <circle cx="786" cy="392" r="206" fill="white" stroke="#E5E7EB"/>
  <circle cx="786" cy="362" r="66" fill="#A5E0D7"/>
  <path d="M700 520C716 456 761 426 810 430C867 436 907 479 916 548" stroke="#4D2BA3" stroke-width="18" stroke-linecap="round"/>
  <path d="M774 347L792 365L822 335" stroke="#277A6F" stroke-width="16" stroke-linecap="round" stroke-linejoin="round"/>
  <rect x="907" y="545" width="183" height="110" rx="22" fill="#FFF4F4" stroke="#FFC1BA"/>
  <rect x="940" y="580" width="116" height="16" rx="8" fill="#FF9C8F"/>
  <rect x="940" y="608" width="82" height="12" rx="6" fill="#FFC1BA"/>
</svg>
