<svg width="96" height="96" viewBox="0 0 96 96" fill="none" xmlns="http://www.w3.org/2000/svg">
  <defs>
    <linearGradient id="bg" x1="10" y1="8" x2="86" y2="90" gradientUnits="userSpaceOnUse">
      <stop stop-color="#8E5DFF"/>
      <stop offset="0.55" stop-color="#6F45DD"/>
      <stop offset="1" stop-color="#2E8F86"/>
    </linearGradient>
    <radialGradient id="coreGlow" cx="0" cy="0" r="1" gradientUnits="userSpaceOnUse" gradientTransform="translate(48 48) rotate(90) scale(24)">
      <stop stop-color="#FFD8D2"/>
      <stop offset="1" stop-color="#FF7A6B"/>
    </radialGradient>
    <linearGradient id="leaf" x1="48" y1="23" x2="48" y2="73" gradientUnits="userSpaceOnUse">
      <stop stop-color="#FFFFFF" stop-opacity="0.98"/>
      <stop offset="1" stop-color="#EAF8F6" stop-opacity="0.95"/>
    </linearGradient>
  </defs>

  <rect x="4" y="4" width="88" height="88" rx="26" fill="url(#bg)"/>

  <rect x="11" y="11" width="74" height="74" rx="22" stroke="white" stroke-opacity="0.22" stroke-width="1.5"/>

  <g>
    <path d="M48 24C53.9 28.3 57.2 34.6 57.2 40.9C57.2 47.1 53.9 53.5 48 57.8C42.1 53.5 38.8 47.1 38.8 40.9C38.8 34.6 42.1 28.3 48 24Z" fill="url(#leaf)"/>
    <path d="M72 48C67.7 53.9 61.4 57.2 55.1 57.2C48.9 57.2 42.5 53.9 38.2 48C42.5 42.1 48.9 38.8 55.1 38.8C61.4 38.8 67.7 42.1 72 48Z" fill="url(#leaf)"/>
    <path d="M48 72C42.1 67.7 38.8 61.4 38.8 55.1C38.8 48.9 42.1 42.5 48 38.2C53.9 42.5 57.2 48.9 57.2 55.1C57.2 61.4 53.9 67.7 48 72Z" fill="url(#leaf)"/>
    <path d="M24 48C28.3 42.1 34.6 38.8 40.9 38.8C47.1 38.8 53.5 42.1 57.8 48C53.5 53.9 47.1 57.2 40.9 57.2C34.6 57.2 28.3 53.9 24 48Z" fill="url(#leaf)"/>
  </g>

  <circle cx="48" cy="48" r="9" fill="url(#coreGlow)"/>
  <circle cx="48" cy="48" r="14" stroke="#FFFFFF" stroke-opacity="0.35" stroke-width="2"/>

  <path d="M66.5 25.5L68.1 29.4L72 31L68.1 32.6L66.5 36.5L64.9 32.6L61 31L64.9 29.4L66.5 25.5Z" fill="#FFFFFF" fill-opacity="0.88"/>
</svg>
